<svg xmlns="http://www.w3.org/2000/svg" viewBox="0 0 64 64" width="64" height="64">
  <defs>
    <linearGradient id="g" x1="0" y1="0" x2="1" y2="1">
      <stop offset="0" stop-color="#ff7a00"></stop>
      <stop offset="1" stop-color="#ffcf33"></stop>
    </linearGradient>
  </defs>
  <rect rx="10" ry="10" x="2" y="2" width="60" height="60" fill="#0c0f12"></rect>
  <path d="M10 45 V19 h8 l2 8 2-8h8v26h-6V26l-4 14h-4l-4-14v19z
           M34 45V19h7c6 0 9 3 9 8v10c0 5-3 8-9 8h-7zm6-6h1c2 0 3-1 3-3V27c0-2-1-3-3-3h-1v15z" fill="url(#g)"></path>
</svg>
